<svg width="22" height="14" viewBox="0 0 22 14" fill="none" xmlns="http://www.w3.org/2000/svg">
<path d="M18.6065 5.76663C18.4126 5.702 18.2256 5.64012 18.0469 5.581C16.6774 5.13412 15.8524 4.86325 15.8524 3.75637C15.8524 2.8585 16.5193 2.20812 17.4378 2.20812C18.1418 2.20812 18.667 2.512 19.1373 3.19675C19.1813 3.26 19.2651 3.28337 19.3325 3.24625L20.7144 2.51337C20.7515 2.49412 20.7804 2.45975 20.7914 2.41712C20.8024 2.3745 20.7983 2.3305 20.779 2.292C20.0379 0.92525 18.9709 0.261125 17.5147 0.261125C15.2996 0.261125 13.8669 1.654 13.8669 3.80862C13.8669 6.01137 15.2529 6.90375 17.8076 7.77687C19.2871 8.28975 19.943 8.56062 19.943 9.65512C19.943 10.8857 18.8746 11.7699 17.4171 11.7176C15.8895 11.664 15.4275 10.8239 14.8459 9.44613C13.8614 7.11275 12.7407 4.39025 12.7311 4.36413C11.6077 1.66913 9.37887 0.125 6.6165 0.125C2.96862 0.125 0 3.20913 0 7.00138C0 10.7909 2.96862 13.875 6.6165 13.875C8.60612 13.875 10.472 12.9592 11.7343 11.3601C11.77 11.3134 11.7796 11.2501 11.7563 11.1951L10.923 9.19588C10.8996 9.14088 10.846 9.10238 10.7869 9.09963C10.7264 9.09688 10.6728 9.13125 10.6453 9.18487C9.85738 10.7482 8.31325 11.719 6.6165 11.719C4.11262 11.719 2.07625 9.60288 2.07625 7C2.07625 4.39712 4.11262 2.281 6.6165 2.281C8.43975 2.281 10.109 3.40437 10.7731 5.08188L12.837 9.97L13.0749 10.5186C14.0071 12.775 15.378 13.787 17.5244 13.7953C20.0764 13.7953 22 12.038 22 9.70875C22 7.37263 20.7556 6.49538 18.6065 5.76663Z" fill="#798DA3"/>
</svg>
